<svg width="40" height="40" viewBox="0 0 40 40" fill="none" xmlns="http://www.w3.org/2000/svg">
  <path d="M20 2C10.611 2 3 9.611 3 19c0 7.525 4.875 13.887 11.625 16.146.85.159 1.163-.364 1.163-.817v-2.862c-4.726 1.027-5.725-2.253-5.725-2.253-.772-1.961-1.887-2.483-1.887-2.483-1.542-1.055.116-1.034.116-1.034 1.704.116 2.601 1.75 2.601 1.75 1.513 2.594 3.97 1.844 4.938 1.411.155-1.097.59-1.844 1.073-2.269-3.775-.432-7.738-1.888-7.738-8.4 0-1.854.659-3.367 1.742-4.558-.174-.429-.755-2.166.166-4.513 0 0 1.425-.455 4.67 1.742 1.355-.372 2.81-.558 4.256-.558s2.901.186 4.256.558c3.246-2.197 4.67-1.742 4.67-1.742.921 2.347.34 4.084.166 4.513 1.083 1.191 1.742 2.704 1.742 4.558 0 6.53-3.972 7.963-7.754 8.388.605.52 1.142 1.548 1.142 3.131v4.648c0 .456.311.981 1.173.817C32.128 32.867 37 26.499 37 19c0-9.389-7.611-17-17-17z" fill="white"/>
</svg>
